<svg xmlns="http://www.w3.org/2000/svg" data-name="Layer 1" viewBox="0 0 1000 1250" x="0px" y="0px">
    <path
        d="M417.14,773.16A16,16,0,0,1,405.39,768l-59.13-63.95a16,16,0,0,1,0-21.73l59.13-63.94a16,16,0,0,1,23.5,21.72L379.8,693.22l49.09,53.08a16,16,0,0,1-11.75,26.86Z"
        fill="#154C79" />
    <path
        d="M582.86,773.16a16,16,0,0,1-11.75-26.86l49.09-53.08-49.09-53.09a16,16,0,1,1,23.5-21.72l59.13,63.94a16,16,0,0,1,0,21.73L594.61,768A16,16,0,0,1,582.86,773.16Z"
        fill="#154C79" />
    <path
        d="M478.23,797.15a16,16,0,0,1-15.55-19.85l43.57-175.86a16,16,0,0,1,31.07,7.7L493.75,785A16,16,0,0,1,478.23,797.15Z"
        fill="#154C79" />
    <path
        d="M593.17,578.43a16,16,0,0,1-11.33-27.29C635.92,496.88,647,485,673.92,431.7l1.63-3.23.17-.34a302.81,302.81,0,0,0,6.21-35.79,2,2,0,0,1,0-.23,312.62,312.62,0,0,0,2-35.24C684,224.3,601.43,116.24,500,116c-101.4.24-183.94,108.3-183.91,240.88a316.12,316.12,0,0,0,2,35.25,301.32,301.32,0,0,0,6.25,36c.6,1.2,1.19,2.38,1.78,3.53,27,53.31,38,65.21,92.08,119.47a16,16,0,0,1-22.66,22.59c-54.9-55.08-69-70.26-98-127.58-.86-1.7-1.77-3.49-2.68-5.33a15.48,15.48,0,0,1-1.24-3.37,335.92,335.92,0,0,1-7.37-41.73,348.41,348.41,0,0,1-2.19-38.82c0-72.09,22-140,61.91-191.33C386.81,113.1,441.5,84.14,500,84c58.54.14,113.23,29.1,154.07,81.57C694,216.87,716,284.81,716,356.89a343,343,0,0,1-2.19,38.68v.14a332.18,332.18,0,0,1-7.36,41.74,16.31,16.31,0,0,1-1.26,3.44l-1,2-1.68,3.33c-29,57.28-43.05,72.46-97.94,127.54A16,16,0,0,1,593.17,578.43Z"
        fill="#154C79" />
    <path
        d="M776,578.43a16,16,0,0,1-13.69-7.69,1085.93,1085.93,0,0,0-86.45-121.58,16,16,0,0,1,24.6-20.47,1122.17,1122.17,0,0,1,89.2,125.44A16,16,0,0,1,776,578.43Z"
        fill="#154C79" />
    <path
        d="M224,578.43a16,16,0,0,1-13.66-24.3,1104.87,1104.87,0,0,1,89.2-125.43,16,16,0,1,1,24.6,20.46,1072.74,1072.74,0,0,0-86.45,121.58A16,16,0,0,1,224,578.43Z"
        fill="#154C79" />
    <path
        d="M808.14,848.44H191.86A16,16,0,0,1,176.07,835L132.39,565a16,16,0,0,1,15.79-18.56H851.82A16,16,0,0,1,867.61,565L823.93,835A16,16,0,0,1,808.14,848.44Zm-602.66-32h589l38.5-238H167Z"
        fill="#154C79" />
    <path
        d="M808.14,916H191.86a16,16,0,0,1-16-16V832.44a16,16,0,0,1,16-16H808.14a16,16,0,0,1,16,16V900A16,16,0,0,1,808.14,916ZM207.86,884H792.14V848.44H207.86Z"
        fill="#154C79" />
    <path
        d="M500,518.59c-37,0-73.07-25.2-101.48-71-23.94-38.56-38.81-86.9-38.81-126.16,0-39.44,15.22-67,45.26-82,26.56-13.26,61.37-15.09,95-15.09s68.47,1.83,95,15.09c30,15,45.26,42.58,45.26,82,0,39.26-14.88,87.6-38.82,126.16C573.07,493.39,537,518.59,500,518.59Zm0-262.23c-82,0-108.29,15.82-108.29,65.11,0,33.12,13.34,76,34,109.28,22,35.49,49.12,55.84,74.3,55.84s52.26-20.35,74.3-55.84c20.65-33.27,34-76.16,34-109.28C608.3,272.18,582,256.36,500,256.36Z"
        fill="#154C79" />
</svg>
